<svg width="50" height="50" fill="none" xmlns="http://www.w3.org/2000/svg"><path d="M38.841 7.654c.667 0 1.207-.54 1.207-1.207V2.64A2.642 2.642 0 0037.41 0H11.88c-.32 0-.627.127-.853.354L1.028 10.35a1.207 1.207 0 00-.353.853V47.36A2.643 2.643 0 003.314 50H37.41a2.642 2.642 0 002.638-2.64V28.936a1.207 1.207 0 10-2.413 0V47.36a.225.225 0 01-.225.225H3.314a.226.226 0 01-.226-.225V12.41h7.36a2.641 2.641 0 002.638-2.638v-7.36H37.41c.124 0 .225.102.225.226v3.808c0 .667.54 1.207 1.206 1.207zM10.672 9.773c0 .124-.1.225-.224.225H4.796l5.876-5.877v5.652z" fill="#C00"/><path d="M48.131 9.804l-1.42-1.42a4.089 4.089 0 00-5.775 0L29.664 19.657h-19.55a1.207 1.207 0 100 2.414H27.25l-7.264 7.264h-9.874a1.207 1.207 0 000 2.413h7.46l-.02.02a1.22 1.22 0 00-.309.53l-1.864 6.714h-5.267a1.207 1.207 0 100 2.413h6.185s.265-.03.303-.04l7.617-2.113c.2-.056.384-.162.53-.31L48.133 15.58a4.088 4.088 0 000-5.775zm-30.1 28.68l.986-3.548 2.562 2.563-3.547.985zm5.864-2.082l-3.78-3.782 19.3-19.301 3.782 3.781-19.302 19.302zm22.53-22.53l-1.521 1.521-3.782-3.781 1.521-1.521a1.672 1.672 0 012.361 0l1.42 1.42a1.67 1.67 0 010 2.362z" fill="#C00"/></svg>