<svg width="50" height="50" fill="none" xmlns="http://www.w3.org/2000/svg"><path d="M47.771 20.172a155.02 155.02 0 00-2.869-.402.284.284 0 01-.24-.201 20.288 20.288 0 00-1.919-4.628.285.285 0 01.027-.315c.593-.77 1.18-1.548 1.746-2.314a2.636 2.636 0 00-.258-3.41l-3.16-3.16a2.636 2.636 0 00-3.41-.258 154.25 154.25 0 00-2.314 1.746.285.285 0 01-.315.027 20.293 20.293 0 00-4.628-1.918.284.284 0 01-.201-.241c-.126-.965-.261-1.93-.402-2.869A2.636 2.636 0 0027.235 0h-4.47a2.635 2.635 0 00-2.593 2.229c-.14.939-.276 1.904-.402 2.869a.284.284 0 01-.201.24 20.301 20.301 0 00-4.628 1.919.286.286 0 01-.315-.027 157.95 157.95 0 00-2.313-1.746 2.636 2.636 0 00-3.41.258l-3.161 3.16a2.636 2.636 0 00-.258 3.41c.567.767 1.154 1.545 1.746 2.314a.285.285 0 01.027.315 20.295 20.295 0 00-1.918 4.627.284.284 0 01-.24.202 146 146 0 00-2.87.402A2.636 2.636 0 000 22.765v4.47c0 1.288.958 2.403 2.229 2.593.94.141 1.906.276 2.869.402a.284.284 0 01.24.201 20.295 20.295 0 001.919 4.628.285.285 0 01-.027.315c-.593.77-1.18 1.55-1.746 2.313a2.636 2.636 0 00.258 3.41l3.16 3.161a2.635 2.635 0 003.41.258c.764-.565 1.542-1.152 2.314-1.746a.285.285 0 01.315-.027 20.292 20.292 0 004.627 1.918c.108.03.187.124.202.241.126.965.261 1.93.402 2.869A2.636 2.636 0 0022.765 50h4.47a2.636 2.636 0 002.593-2.23c.14-.94.276-1.904.402-2.868a.284.284 0 01.201-.241 20.305 20.305 0 004.628-1.918.286.286 0 01.315.027c.771.593 1.55 1.18 2.313 1.745a2.636 2.636 0 003.41-.257l3.161-3.16a2.636 2.636 0 00.258-3.41 156.406 156.406 0 00-1.746-2.314.285.285 0 01-.027-.315 20.294 20.294 0 001.918-4.628.284.284 0 01.241-.202c.963-.125 1.929-.26 2.869-.401A2.636 2.636 0 0050 27.235v-4.47a2.636 2.636 0 00-2.229-2.593zm-.106 7.063a.287.287 0 01-.24.285c-.925.138-1.876.27-2.825.395a2.613 2.613 0 00-2.19 1.896 17.962 17.962 0 01-1.696 4.095 2.615 2.615 0 00.206 2.892c.583.759 1.162 1.525 1.719 2.278a.287.287 0 01-.032.37l-3.16 3.162c-.1.1-.26.113-.37.031a152.297 152.297 0 01-2.28-1.72 2.615 2.615 0 00-2.89-.205 17.965 17.965 0 01-4.096 1.696 2.614 2.614 0 00-1.896 2.19c-.124.95-.257 1.9-.396 2.826a.287.287 0 01-.284.24h-4.47a.287.287 0 01-.284-.24c-.139-.925-.272-1.875-.396-2.825a2.614 2.614 0 00-1.896-2.19 17.957 17.957 0 01-4.095-1.697 2.607 2.607 0 00-2.892.206c-.76.585-1.526 1.163-2.278 1.72a.287.287 0 01-.37-.032l-3.161-3.161a.287.287 0 01-.032-.37c.557-.753 1.135-1.52 1.72-2.279.645-.84.726-1.974.206-2.891a17.962 17.962 0 01-1.697-4.095 2.613 2.613 0 00-2.19-1.897c-.949-.124-1.9-.257-2.826-.395a.287.287 0 01-.24-.285v-4.47c0-.141.104-.263.24-.284.927-.139 1.877-.272 2.826-.395a2.613 2.613 0 002.19-1.897 17.955 17.955 0 011.697-4.095c.52-.917.44-2.052-.207-2.891-.582-.758-1.16-1.524-1.719-2.279a.287.287 0 01.032-.37l3.16-3.16c.1-.101.26-.114.37-.033.752.557 1.52 1.135 2.28 1.72a2.612 2.612 0 002.89.206A17.961 17.961 0 0120.19 7.59a2.614 2.614 0 001.896-2.19c.124-.95.257-1.901.396-2.826a.287.287 0 01.284-.239h4.47c.142 0 .264.103.284.24.139.924.272 1.874.396 2.825a2.614 2.614 0 001.896 2.19 17.99 17.99 0 014.095 1.697c.917.52 2.052.44 2.892-.207.76-.584 1.526-1.163 2.278-1.719a.286.286 0 01.37.032l3.161 3.16c.1.1.114.26.032.371-.557.754-1.136 1.52-1.72 2.279a2.615 2.615 0 00-.205 2.891 17.96 17.96 0 011.697 4.095 2.614 2.614 0 002.19 1.897c.948.123 1.899.256 2.825.395.137.02.24.143.24.284v4.47z" fill="#C00"/><path d="M25 14.147c-5.984 0-10.853 4.869-10.853 10.853S19.016 35.853 25 35.853c5.985 0 10.853-4.869 10.853-10.853S30.984 14.147 25 14.147zm0 19.371c-4.697 0-8.518-3.821-8.518-8.518 0-4.697 3.821-8.518 8.518-8.518 4.697 0 8.518 3.821 8.518 8.518 0 4.697-3.82 8.518-8.518 8.518z" fill="#C00"/></svg>