<svg width="100" height="100" fill="none" xmlns="http://www.w3.org/2000/svg"><path d="M94.353 13.443L90.079 9.68l4.274-3.762c.664-.586.892-1.5.58-2.328a2.094 2.094 0 00-1.974-1.365H75.275v-.76a1.466 1.466 0 10-2.93 0v19.767l-12.038 6.536a4.638 4.638 0 00-.476-1.54l-1.696-3.31a4.637 4.637 0 00-6.233-2.012l-1.312.671a4.602 4.602 0 00-2.297 2.701 4.598 4.598 0 00.286 3.533l1.696 3.312a4.604 4.604 0 001.67 1.814c-.9 1.212-1.328 2.703-1.767 4.252l-.316 1.118a1.465 1.465 0 102.82.797l.316-1.116c.643-2.265 1.037-3.478 2.293-4.16l2.251-1.223.278-.142c.092-.047.179-.1.266-.153l16.046-8.714a6.203 6.203 0 01-2.958 4.98l-10.435 6.34a.574.574 0 00-.036.022l-3.248 1.973a1.467 1.467 0 001.401 2.571l-2.464 7.45-1.801.738-4.898 2.007 1.411-4.99a1.467 1.467 0 00-2.821-.797l-2.23 7.886a1.408 1.408 0 00-.053.319l-.584 10.72c-.017.41.07 1.183-.12 1.582l-6.481 13.636h-4.71a5.01 5.01 0 00-5.005 5.004v4.23a4.965 4.965 0 00-2.072-.45H15.066a5.009 5.009 0 00-5.004 5.003v5.249H6.545a1.466 1.466 0 100 2.93h86.413a1.466 1.466 0 100-2.93h-3.811V59.292a5.01 5.01 0 00-5.004-5.004h-8.867V28.72c1.625-2.203 2.227-5.09 1.473-7.833a1.463 1.463 0 00-1.473-1.076v-2.675h17.683c.886 0 1.66-.536 1.974-1.364a2.094 2.094 0 00-.58-2.329zm-43.27 11.736c.14-.433.44-.786.843-.992l1.312-.672a1.702 1.702 0 012.288.738l1.697 3.312c.396.774.14 1.711-.565 2.185l-.477.259-1.008.516a1.702 1.702 0 01-2.288-.738l-1.697-3.311a1.69 1.69 0 01-.105-1.297zm-2.945 53.305a4.975 4.975 0 00-1.609-.429l1.61-2.137v2.566zm6.96-11.81c.704-.844.899-1.83 1.056-2.625.04-.19.763-4.14.763-4.14s.684.426.756.457c.05.022.085.07.09.128l.797 8.105h-4.912l1.45-1.924zm8.666-8.089l-1.237 10.007h-1.022l-.825-8.385a3.088 3.088 0 00-1.726-2.478l-1.474-.934.982-5.442s4.136 4.914 4.232 5.039c.856 1.113 1.15 1.558 1.07 2.193zm-15.83 7.093a7.946 7.946 0 00.41-2.72l.532-9.778 6.779-2.778-1.232 6.825a.678.678 0 00-.01.056l-1.02 5.643c-.132.585-.248 1.471-.613 1.953l-9.904 13.154h-.816l5.873-12.355zm-34.94 26.14c0-1.141.929-2.07 2.072-2.07h11.962c1.143 0 2.073.929 2.073 2.07v5.25H12.994v-5.25zm19.037 0v-8.781c0-1.143.93-2.073 2.073-2.073h11.962c1.143 0 2.072.93 2.072 2.073v14.032H32.032v-5.25zm54.183-32.526v37.777H70.108V88.28a1.466 1.466 0 10-2.932 0v8.788H51.07V73.6c0-1.142.929-2.071 2.072-2.071h11.962c1.143 0 2.072.93 2.072 2.071v7.347a1.466 1.466 0 102.931 0V59.292c0-1.143.93-2.072 2.073-2.072h11.961c1.143 0 2.073.93 2.073 2.072zM72.18 54.288a5.009 5.009 0 00-5.003 5.004v9.758a4.959 4.959 0 00-1.7-.436l1.196-9.668c.235-1.884-.726-3.133-1.655-4.342-.099-.128-5.796-6.892-5.796-6.892l3.495-10.567 9.627-5.849v22.992h-.164zm3.095-40.084V5.157h15.506l-3.34 2.94a2.11 2.11 0 000 3.167l3.34 2.94H75.275z" fill="#383838"/></svg>