<svg width="100" height="100" fill="none" xmlns="http://www.w3.org/2000/svg"><g clip-path="url(#clip0)" fill="#383838"><path d="M76.626 44.154a5.747 5.747 0 00-5.74-5.74H60.333c2.563-2.882 4.239-6.163 4.563-9.107.197-1.797-.358-3.582-1.525-4.896-1.066-1.2-2.524-1.87-4.105-1.885h-.055a5.71 5.71 0 00-4.049 1.662 5.67 5.67 0 00-1.69 4.03c-.056.335-.643 1.487-2.082 2.855-1.178 1.12-3.212 2.66-6.216 3.636-1.177.382-2.254 1.086-3.199 2.092a20.714 20.714 0 01-2.158 1.989 3.213 3.213 0 00-1.509-.376h-10.02a3.24 3.24 0 00-3.237 3.236v26.722a3.24 3.24 0 003.236 3.236H38.31a3.238 3.238 0 002.83-1.67h25.57a4.912 4.912 0 004.907-4.906c0-.91-.249-1.762-.682-2.493a4.908 4.908 0 001.67-6.681 4.908 4.908 0 002.352-4.188 4.88 4.88 0 00-.854-2.763 5.74 5.74 0 002.524-4.753zm-5.74 2.61h-.836a1.566 1.566 0 000 3.132c.978 0 1.775.796 1.775 1.774 0 .979-.797 1.775-1.775 1.775h-1.67a1.566 1.566 0 000 3.132c.978 0 1.775.796 1.775 1.774 0 .979-.797 1.775-1.775 1.775h-1.67a1.566 1.566 0 000 3.131c.978 0 1.774.796 1.774 1.775 0 .978-.796 1.775-1.774 1.775H41.545V51.67a1.566 1.566 0 00-3.132 0v16.701a.104.104 0 01-.104.105h-10.02a.104.104 0 01-.105-.105V41.65c0-.057.046-.104.104-.104H38.31c.058 0 .104.047.104.104v3.34a1.566 1.566 0 003.132 0v-3.34c0-.076-.006-.15-.012-.225a23.773 23.773 0 002.726-2.48c.58-.617 1.213-1.04 1.883-1.257 3.685-1.197 6.166-3.123 7.597-4.529 1.794-1.761 2.865-3.598 2.865-4.912 0-.695.271-1.346.763-1.833a2.625 2.625 0 011.87-.756c.878.009 1.46.458 1.793.833.571.644.853 1.57.753 2.475-.342 3.111-2.83 6.957-6.339 9.797a1.566 1.566 0 00.986 2.783h14.455c1.439 0 2.61 1.17 2.61 2.61a2.613 2.613 0 01-2.61 2.609z"/><path d="M33.299 61.779a1.58 1.58 0 00-1.574 1.574 1.58 1.58 0 001.574 1.574 1.58 1.58 0 001.574-1.574 1.58 1.58 0 00-1.574-1.574z"/><path d="M97.209 50l2.69-7.117a1.57 1.57 0 00-.243-1.533l-4.758-5.938.359-7.6a1.566 1.566 0 00-.705-1.383l-6.36-4.178-2.007-7.34a1.566 1.566 0 00-1.097-1.096l-7.34-2.008-4.177-6.36a1.568 1.568 0 00-1.382-.704l-7.6.359L58.65.344a1.566 1.566 0 00-1.533-.242L50 2.792 42.882.101a1.565 1.565 0 00-1.532.243l-5.94 4.758-7.6-.358a1.563 1.563 0 00-1.383.704l-4.177 6.36-7.34 2.007a1.565 1.565 0 00-1.097 1.097l-2.007 7.34-6.36 4.177c-.462.304-.73.83-.704 1.382l.359 7.6-4.758 5.94A1.566 1.566 0 00.1 42.882L2.791 50 .1 57.118c-.196.518-.104 1.1.243 1.533L5.1 64.589l-.358 7.6a1.566 1.566 0 00.704 1.383l6.36 4.177 2.007 7.34c.146.534.563.951 1.097 1.097l7.34 2.007 4.177 6.36c.304.463.83.729 1.383.704l7.6-.358 5.938 4.757a1.565 1.565 0 001.533.243L50 97.21l7.117 2.69a1.566 1.566 0 001.533-.243l5.938-4.757 7.6.358a1.567 1.567 0 001.383-.704l4.178-6.36 7.34-2.007a1.566 1.566 0 001.096-1.097l2.008-7.34 6.36-4.177c.462-.304.73-.83.704-1.383l-.359-7.6 4.758-5.938a1.566 1.566 0 00.243-1.533L97.209 50zm-3.139.554l2.584 6.836-4.57 5.703c-.238.297-.36.671-.342 1.052l.345 7.3-6.108 4.012c-.319.209-.55.527-.65.895L83.4 83.401l-7.048 1.928c-.368.1-.686.332-.896.65l-4.012 6.108-7.3-.344a1.567 1.567 0 00-1.052.342l-5.703 4.57-6.836-2.584a1.565 1.565 0 00-1.107 0l-6.835 2.583-5.703-4.569a1.568 1.568 0 00-1.053-.342l-7.3.344-4.011-6.107a1.566 1.566 0 00-.896-.651L16.599 83.4l-1.928-7.049a1.566 1.566 0 00-.65-.895l-6.108-4.012.344-7.3a1.565 1.565 0 00-.342-1.052L3.346 57.39l2.583-6.836c.135-.357.135-.75 0-1.107L3.346 42.61l4.57-5.703c.238-.297.36-.672.341-1.053l-.344-7.299 6.107-4.012c.319-.209.55-.528.651-.896L16.6 16.6l7.049-1.928c.368-.1.686-.332.896-.65l4.011-6.109 7.3.345a1.57 1.57 0 001.053-.342l5.703-4.57 6.835 2.584c.357.135.75.135 1.107 0l6.836-2.583 5.703 4.569c.297.239.672.36 1.053.342l7.3-.344 4.011 6.107c.21.319.528.55.896.65L83.4 16.6l1.928 7.048c.1.368.332.687.651.896l6.108 4.012-.345 7.3c-.018.38.104.755.342 1.052l4.57 5.703-2.584 6.836c-.134.357-.134.75 0 1.107z"/><path d="M79.42 22.964a40.947 40.947 0 00-2.455-2.456 1.566 1.566 0 10-2.118 2.307 38.03 38.03 0 012.267 2.266 1.562 1.562 0 002.212.095c.637-.585.68-1.575.095-2.212zm-8.015-6.729c-7.551-4.81-16.642-6.948-25.598-6.02A40.067 40.067 0 0021.68 21.71a39.86 39.86 0 00-11.677 26.642c-.405 9.999 2.907 19.706 9.326 27.335a1.562 1.562 0 002.206.19 1.566 1.566 0 00.19-2.206c-5.914-7.03-8.966-15.976-8.593-25.192a36.736 36.736 0 0110.762-24.555A36.925 36.925 0 0146.13 13.33c8.256-.856 16.635 1.115 23.592 5.547a1.566 1.566 0 101.683-2.64zm12.289 12.289a1.566 1.566 0 10-2.642 1.682c4.433 6.958 6.403 15.336 5.548 23.593a36.927 36.927 0 01-10.595 22.235A36.737 36.737 0 0151.45 86.796c-9.214.375-18.163-2.678-25.191-8.592a1.566 1.566 0 10-2.016 2.396 39.825 39.825 0 0025.696 9.359c.545 0 1.092-.011 1.639-.034A39.86 39.86 0 0078.22 78.25a40.064 40.064 0 0011.495-24.127c.928-8.957-1.21-18.047-6.022-25.598z"/></g><defs><clipPath id="clip0"><path fill="#fff" d="M0 0h100v100H0z"/></clipPath></defs></svg>