<svg xmlns="http://www.w3.org/2000/svg" width="163" height="46" shape-rendering="geometricPrecision" text-rendering="geometricPrecision" image-rendering="optimizeQuality" fill-rule="evenodd" clip-rule="evenodd"><defs><style>.fil0{fill-rule:nonzero;fill:#fff}</style></defs><g id="Слой_x0020_1"><g id="_2971670166608"><path class="fil0" d="M63.05 12.17V.37h3.82c1.34 0 2.35.23 3.02.7.67.48 1.01 1.18 1.01 2.14 0 .29-.04.58-.11.86s-.17.54-.32.77c-.14.24-.32.44-.54.62a2.4 2.4 0 01-.77.43c.3.05.58.14.84.28.27.15.51.33.71.55.2.23.36.5.47.8.12.31.18.65.18 1.03 0 1.21-.4 2.11-1.21 2.72-.81.6-1.97.9-3.5.9h-3.6zm5.53-8.58c0-.22-.03-.42-.1-.6-.08-.18-.19-.34-.35-.46-.16-.13-.37-.23-.62-.3-.25-.07-.55-.1-.91-.1h-1.34v3.12h1.34c.37 0 .67-.04.92-.13.25-.08.46-.2.62-.36.16-.15.27-.33.34-.53s.1-.41.1-.64zm-1.77 6.77c.36 0 .67-.05.94-.14.26-.08.49-.21.67-.37.18-.16.32-.35.41-.57.1-.21.14-.44.14-.69 0-.51-.19-.91-.57-1.2-.39-.29-.97-.43-1.76-.43h-1.38v3.4h1.55z"/><path id="1" class="fil0" d="M73.72 12.17V.37h7.11v1.89h-4.85v2.92h4.63v1.83h-4.63v3.28h4.85v1.88z"/><path id="2" class="fil0" d="M87.19 5.11c.76 0 1.43.08 2 .26.57.17 1.04.41 1.41.72.37.3.64.66.83 1.08.18.41.27.86.27 1.34 0 1.21-.4 2.12-1.2 2.74-.8.62-1.97.92-3.5.92h-3.6V.37h7.49v1.76H85.6v2.98h1.59zm-.03 5.29c.35 0 .66-.05.93-.15.27-.1.49-.23.67-.4.19-.17.32-.37.42-.59.09-.22.14-.46.14-.71 0-.25-.05-.48-.14-.69a1.35 1.35 0 00-.41-.55 2.19 2.19 0 00-.72-.34c-.3-.08-.65-.12-1.07-.12H85.6v3.55h1.56z"/><path id="3" class="fil0" d="M110.39 12.17l-.21-6.67-.08-2.67-.57 1.8-1.32 4.03h-1.39l-1.18-4.03-.49-1.8-.07 2.62-.2 6.72h-1.89l.58-11.8h2.52l1.03 3.36.5 1.89.5-1.78 1.09-3.47h2.56l.58 11.8z"/><path id="4" class="fil0" d="M120.44 12.17l-.65-2.33h-4.13l-.66 2.33h-2.21l3.5-11.8h3.1l3.5 11.8h-2.45zm-2.69-9.65l-1.57 5.51h3.1l-1.53-5.51z"/><path id="5" class="fil0" d="M131.98 11.71c-.52.21-1.03.37-1.52.48-.49.1-1 .15-1.53.15-.85 0-1.6-.13-2.25-.38-.65-.25-1.21-.62-1.65-1.11-.45-.5-.79-1.11-1.02-1.84-.23-.73-.35-1.58-.35-2.55 0-1 .12-1.88.38-2.65.25-.78.61-1.43 1.08-1.97a4.66 4.66 0 011.71-1.22c.67-.28 1.43-.42 2.26-.42.28 0 .53.01.77.02.24.02.47.04.69.07.24.03.47.08.7.13.24.06.48.13.73.21v2.2a6.9 6.9 0 00-1.46-.51c-.46-.1-.88-.16-1.26-.16-.56 0-1.04.11-1.44.31-.39.2-.72.48-.98.85-.25.36-.44.79-.56 1.3-.12.5-.18 1.05-.18 1.66 0 .63.06 1.2.19 1.71.12.5.31.93.57 1.28.26.35.59.61.99.8.4.18.88.27 1.44.27.19 0 .41-.02.64-.06.23-.04.46-.09.7-.15.24-.06.48-.14.71-.23.23-.08.45-.17.64-.26v2.07z"/><path id="6" class="fil0" d="M139.31 2.22v9.95h-2.28V2.22h-3.24V.37h8.75v1.85z"/><path id="7" class="fil0" d="M144.93 12.17V.37h7.1v1.89h-4.85v2.92h4.63v1.83h-4.63v3.28h4.85v1.88z"/><path id="8" class="fil0" d="M162.85 4.13c0 .61-.1 1.18-.31 1.7-.2.52-.51.97-.91 1.35-.41.38-.91.67-1.51.88-.6.22-1.3.32-2.1.32h-1.13v3.79h-2.24V.37h3.46c.77 0 1.45.08 2.03.25.59.16 1.08.41 1.49.73.4.32.7.71.91 1.18.2.46.31 1 .31 1.6zm-2.33.15c0-.31-.05-.59-.15-.85-.1-.25-.25-.47-.45-.65-.2-.18-.46-.32-.77-.41-.31-.1-.67-.15-1.09-.15h-1.17v4.31h1.24c.39 0 .73-.05 1.02-.16.3-.1.55-.25.75-.45.2-.2.35-.44.46-.71.11-.28.16-.59.16-.93z"/><path id="9" class="fil0" d="M94.68 8.23V6.27h5.62v1.96z"/><path class="fil0" d="M48.74 46V34.2h7.11v1.88H51v2.93h4.63v1.83H51v3.27h4.85V46z"/><path id="1" class="fil0" d="M58.42 46V34.2h3.81c1.34 0 2.35.23 3.02.7.67.47 1.01 1.18 1.01 2.13 0 .3-.03.59-.1.86-.07.28-.18.54-.33.78-.14.23-.32.44-.54.62-.21.18-.47.32-.77.42.3.05.58.15.85.29.26.14.5.32.7.55.2.23.36.49.48.8.11.31.17.65.17 1.03 0 1.2-.4 2.11-1.21 2.71-.8.61-1.97.91-3.49.91h-3.6zm5.53-8.58c0-.23-.04-.43-.11-.61s-.19-.33-.35-.46c-.16-.12-.37-.22-.61-.29-.26-.07-.56-.11-.92-.11h-1.34v3.13h1.34c.37 0 .67-.04.92-.13s.46-.21.62-.36c.16-.16.28-.33.34-.53.07-.2.11-.41.11-.64zm-1.78 6.77c.36 0 .67-.05.94-.14.27-.09.49-.22.67-.37.19-.16.32-.35.42-.57.09-.22.14-.45.14-.69 0-.52-.2-.92-.58-1.2-.38-.29-.97-.44-1.76-.44h-1.38v3.41h1.55z"/><path id="2" class="fil0" d="M76.49 45.54c-.53.21-1.03.37-1.52.47-.5.1-1.01.16-1.54.16-.84 0-1.6-.13-2.25-.38-.65-.25-1.2-.62-1.65-1.12-.45-.49-.79-1.1-1.02-1.83-.23-.73-.35-1.59-.35-2.56 0-.99.13-1.88.38-2.65s.62-1.43 1.08-1.96c.48-.53 1.05-.94 1.72-1.22.67-.28 1.42-.42 2.26-.42.27 0 .52.01.76.02s.47.03.7.07c.23.03.46.07.7.13.23.05.47.12.73.21v2.2a6.9 6.9 0 00-1.46-.51c-.47-.11-.89-.16-1.27-.16-.56 0-1.03.1-1.43.3-.4.21-.73.49-.98.85-.26.37-.44.8-.56 1.31-.12.5-.19 1.05-.19 1.65 0 .64.07 1.21.19 1.72.12.5.31.92.57 1.27.26.35.59.62 1 .8.4.19.88.28 1.43.28.2 0 .41-.02.64-.06.23-.04.47-.09.71-.16.24-.06.47-.13.7-.22.23-.09.45-.18.65-.27v2.08z"/><path id="3" class="fil0" d="M79.26 46V34.2h7.1v1.88h-4.84v2.93h4.62v1.83h-4.62v3.27h4.84V46z"/><path id="4" class="fil0" d="M89.43 46V34.2h7.1v1.88h-4.84v2.93h4.62v1.83h-4.62v3.27h4.84V46z"/><path id="5" class="fil0" d="M99.1 46V34.2h3.82c1.34 0 2.35.23 3.02.7.67.47 1.01 1.18 1.01 2.13 0 .3-.04.59-.11.86-.07.28-.17.54-.32.78-.14.23-.32.44-.54.62-.22.18-.47.32-.77.42.3.05.58.15.84.29.27.14.5.32.71.55.2.23.36.49.47.8.12.31.18.65.18 1.03 0 1.2-.41 2.11-1.21 2.71-.81.61-1.97.91-3.5.91h-3.6zm5.53-8.58c0-.23-.03-.43-.1-.61-.08-.18-.19-.33-.35-.46a1.88 1.88 0 00-.62-.29 3.38 3.38 0 00-.91-.11h-1.35v3.13h1.35c.37 0 .67-.04.92-.13s.46-.21.62-.36c.16-.16.27-.33.34-.53s.1-.41.1-.64zm-1.77 6.77c.36 0 .67-.05.94-.14.26-.09.49-.22.67-.37.18-.16.32-.35.41-.57.1-.22.14-.45.14-.69 0-.52-.19-.92-.57-1.2-.39-.29-.97-.44-1.76-.44h-1.39v3.41h1.56z"/><path class="fil0" d="M60.18 29.09l-.65-2.34h-4.12l-.67 2.34h-2.2l3.49-11.81h3.11l3.5 11.81h-2.46zm-2.68-9.65l-1.58 5.5h3.11l-1.53-5.5z"/><path id="1" class="fil0" d="M62.85 27.09c.18.01.34.01.5-.01.15-.02.3-.08.44-.17.15-.09.28-.23.4-.42.12-.19.24-.44.35-.76.1-.32.2-.72.29-1.2.09-.49.17-1.07.24-1.75.08-.69.14-1.48.2-2.39.05-.9.1-1.94.13-3.11h6.44v11.81H69.6v-9.85h-2.16c-.06 1.54-.14 2.87-.26 3.98-.12 1.11-.28 2.05-.47 2.82-.19.76-.41 1.37-.67 1.82-.26.44-.56.77-.89.99-.33.21-.69.31-1.09.32-.41.01-.85-.04-1.32-.16l.11-1.92z"/><path id="2" class="fil0" d="M74.5 29.09V17.28h7.11v1.89h-4.85v2.92h4.62v1.83h-4.62v3.28h4.85v1.89z"/><path id="3" class="fil0" d="M89.98 29.09l-3.55-5.71v5.71h-2.26V17.28h2.26v5.39l3.53-5.39h2.69l-4.01 5.63 4.22 6.18z"/><path id="4" class="fil0" d="M102.24 28.62c-.52.22-1.02.37-1.52.48-.49.1-1 .15-1.53.15-.85 0-1.6-.12-2.25-.37-.65-.25-1.2-.62-1.65-1.12-.45-.49-.79-1.11-1.02-1.84-.23-.73-.35-1.58-.35-2.55 0-.99.13-1.88.38-2.65.25-.78.61-1.43 1.08-1.96.47-.54 1.04-.94 1.71-1.22.68-.28 1.43-.42 2.27-.42.27 0 .52 0 .76.02.24.01.47.03.7.06.23.04.46.08.69.13.24.06.48.13.73.21v2.2c-.51-.24-.99-.41-1.46-.51-.46-.1-.88-.15-1.26-.15-.56 0-1.04.1-1.43.3-.4.2-.73.48-.99.85-.25.36-.44.8-.56 1.3-.12.5-.18 1.06-.18 1.66 0 .64.06 1.21.19 1.71.12.5.31.93.57 1.28.26.35.59.61.99.8.4.18.88.27 1.44.27.19 0 .41-.01.64-.05.23-.04.47-.09.7-.16.24-.06.48-.14.71-.22.23-.09.45-.18.64-.27v2.07z"/><path id="5" class="fil0" d="M105.02 29.09V17.28h7.1v1.89h-4.85v2.92h4.63v1.83h-4.63v3.28h4.85v1.89z"/><path id="6" class="fil0" d="M120.61 29.09v-7.55h-.02l-4.09 7.55h-2.14V17.28h2.23v7.55h.02l4.1-7.55h2.14v11.81h-2.24zm1.09-14.95c0 .82-.28 1.46-.84 1.92-.57.46-1.33.69-2.29.69-.55 0-1.02-.07-1.41-.2-.38-.13-.7-.32-.94-.55-.24-.24-.42-.51-.53-.83a3.09 3.09 0 01-.17-1.03h2.02c0 .2.02.38.06.55.04.16.1.3.18.42.09.11.19.2.32.26.14.07.3.1.5.1.19 0 .36-.04.5-.11s.25-.17.33-.29c.08-.12.15-.26.19-.43.04-.17.06-.33.06-.5h2.02z"/><path d="M41.48 39.85L38.84 46H12.06L31.72.17h26.77l-2.64 6.15H35.78L29.9 20.01h20.08l-2.64 6.15H27.25l-5.88 13.69zM6.67 46H0L19.66.17h6.7z" fill="#c00" fill-rule="nonzero"/></g></g></svg>