<svg width="50" height="50" fill="none" xmlns="http://www.w3.org/2000/svg"><g clip-path="url(#clip0)"><path d="M49.965 12.367a2.564 2.564 0 00-2.56-2.558H47.4l-44.843.062c-.684 0-1.327.268-1.81.752A2.545 2.545 0 000 12.435l.035 25.198c0 .684.268 1.327.752 1.81a2.544 2.544 0 001.809.748h.003l44.843-.062A2.564 2.564 0 0050 37.565l-.035-25.198zm-5.374.007L25 25.992 5.376 12.428l39.216-.054zM33.286 28.562l11.618 9.01-39.841.054 11.689-9.064a1.28 1.28 0 00-1.57-2.024L2.594 36.3l-.031-22.702 21.713 15.005a1.278 1.278 0 001.459-.002l21.67-15.065.034 22.76-12.584-9.758a1.28 1.28 0 00-1.57 2.024z" fill="#C00"/></g><defs><clipPath id="clip0"><path fill="#fff" d="M0 0h50v50H0z"/></clipPath></defs></svg>