<svg width="100" height="100" fill="none" xmlns="http://www.w3.org/2000/svg"><g clip-path="url(#clip0)" fill="#383838"><path d="M62.765 12.46a28.415 28.415 0 00-32.97 5.288c-10.137 10.136-11.151 26.297-2.36 37.593a1.573 1.573 0 002.211.276c.687-.535.81-1.525.276-2.212-7.816-10.043-6.913-24.414 2.101-33.428a25.269 25.269 0 0129.32-4.704 1.576 1.576 0 101.422-2.813zM75.35 25.047a1.576 1.576 0 00-2.814 1.42 25.27 25.27 0 01-4.707 29.316c-9.014 9.014-23.385 9.917-33.428 2.101a1.576 1.576 0 00-1.936 2.487A28.32 28.32 0 0049.9 66.346c7.334 0 14.64-2.814 20.158-8.333a28.416 28.416 0 005.291-32.965zm-4.072-6.002a28.878 28.878 0 00-2.516-2.516 1.576 1.576 0 10-2.088 2.361 25.76 25.76 0 012.242 2.242 1.572 1.572 0 002.224.137 1.576 1.576 0 00.138-2.224z"/><path d="M87.122 40.705a5.348 5.348 0 000-5.589l-2.073-3.4a2.218 2.218 0 01-.297-1.498l.618-3.926a5.346 5.346 0 00-2.145-5.176l-3.213-2.337a2.219 2.219 0 01-.85-1.27l-.937-3.867a5.346 5.346 0 00-3.954-3.955l-3.867-.936a2.218 2.218 0 01-1.27-.85l-2.338-3.215a5.345 5.345 0 00-5.175-2.145l-3.928.618a2.219 2.219 0 01-1.498-.297l-3.4-2.074a5.347 5.347 0 00-5.59 0l-3.4 2.074a2.22 2.22 0 01-1.498.297l-3.926-.618c-2-.315-3.984.507-5.175 2.145l-2.337 3.213a2.22 2.22 0 01-1.271.85l-3.867.936a5.347 5.347 0 00-3.955 3.954l-.936 3.868a2.22 2.22 0 01-.85 1.27l-3.215 2.338a5.345 5.345 0 00-2.145 5.175l.618 3.928a2.219 2.219 0 01-.297 1.498l-2.073 3.4a5.348 5.348 0 000 5.59l2.073 3.4c.273.447.379.98.297 1.497l-.618 3.927a5.345 5.345 0 002.145 5.175l3.213 2.337c.425.31.727.76.85 1.271l.936 3.867a5.346 5.346 0 003.955 3.955l1.615.39-10.929 24.378a1.576 1.576 0 001.625 2.21l8.793-1.052 5.066 7.264a1.576 1.576 0 002.73-.256L45.792 74.17l1.414.862A5.36 5.36 0 0050 75.82c.966 0 1.932-.263 2.794-.788l1.466-.894 11.175 24.93a1.576 1.576 0 002.73.257l5.066-7.264 8.793 1.051a1.576 1.576 0 001.625-2.21l-10.934-24.39 1.554-.377a5.347 5.347 0 003.955-3.954l.936-3.867a2.22 2.22 0 01.85-1.27l3.214-2.338a5.345 5.345 0 002.145-5.175l-.618-3.928a2.219 2.219 0 01.298-1.498l2.073-3.4zM32.892 95.24l-4.014-5.757a1.575 1.575 0 00-1.48-.663l-6.968.833 9.956-22.211c.182.133.346.294.48.48l2.338 3.213c.222.305.471.582.743.828l-5.24 11.691a1.576 1.576 0 002.875 1.29l5.223-11.65c.514.07 1.043.07 1.574-.014l3.928-.618c.235-.037.472-.034.704.005L32.892 95.24zm46.743-5.587l-6.969-.833a1.575 1.575 0 00-1.48.663l-4.014 5.757L57.05 72.658a2.2 2.2 0 01.643.005l3.926.618a5.394 5.394 0 001.637.004l5.226 11.659a1.576 1.576 0 102.876-1.29L66.097 71.92a5.34 5.34 0 00.697-.784l2.337-3.213c.148-.202.328-.376.53-.516l9.974 22.247zm4.796-50.589l-2.073 3.4a5.375 5.375 0 00-.72 3.63l.618 3.927c.13.826-.21 1.645-.885 2.136l-3.215 2.338a5.374 5.374 0 00-2.06 3.078l-.935 3.867a2.208 2.208 0 01-1.633 1.633l-3.867.936a5.373 5.373 0 00-3.079 2.06l-2.337 3.213a2.206 2.206 0 01-2.136.885l-3.927-.618a5.375 5.375 0 00-3.629.72l-3.4 2.073a2.208 2.208 0 01-2.307 0l-3.4-2.074a5.373 5.373 0 00-3.629-.72l-3.928.619a2.207 2.207 0 01-2.136-.886l-2.338-3.214a5.373 5.373 0 00-3.078-2.06l-3.867-.935a2.207 2.207 0 01-1.633-1.633l-.936-3.867a5.373 5.373 0 00-2.06-3.079l-3.212-2.337a2.207 2.207 0 01-.886-2.136l.618-3.927a5.374 5.374 0 00-.72-3.629l-2.072-3.4a2.208 2.208 0 010-2.307l2.073-3.4a5.374 5.374 0 00.72-3.63l-.618-3.927c-.13-.826.21-1.645.885-2.136l3.214-2.338a5.374 5.374 0 002.06-3.078l.936-3.867a2.208 2.208 0 011.633-1.633l3.867-.936a5.373 5.373 0 003.078-2.06l2.337-3.213a2.206 2.206 0 012.137-.885l3.926.618a5.372 5.372 0 003.63-.72l3.4-2.073a2.208 2.208 0 012.306 0l3.4 2.074a5.372 5.372 0 003.63.72l3.928-.619c.825-.13 1.644.21 2.136.886l2.338 3.214a5.373 5.373 0 003.078 2.06l3.867.935c.81.197 1.436.822 1.632 1.633l.936 3.867a5.373 5.373 0 002.06 3.079l3.213 2.337a2.206 2.206 0 01.885 2.136l-.618 3.927a5.374 5.374 0 00.72 3.629l2.073 3.4a2.207 2.207 0 010 2.307z"/><path d="M68.44 33.007a2.82 2.82 0 00-2.372-1.948l-9.483-1.124-4-8.671A2.82 2.82 0 0050 19.609a2.82 2.82 0 00-2.586 1.655l-4 8.671-9.483 1.125a2.82 2.82 0 00-2.372 1.948 2.82 2.82 0 00.774 2.97l7.011 6.483-1.86 9.366a2.82 2.82 0 001.119 2.859 2.835 2.835 0 001.67.549 2.85 2.85 0 001.394-.368L50 50.203l8.333 4.664a2.82 2.82 0 003.065-.181 2.82 2.82 0 001.119-2.859l-1.861-9.366 7.01-6.483a2.82 2.82 0 00.776-2.97zm-10.572 7.74a1.576 1.576 0 00-.476 1.463l1.904 9.584-8.527-4.772a1.575 1.575 0 00-1.54 0l-8.526 4.773 1.904-9.585a1.574 1.574 0 00-.476-1.464l-7.174-6.635 9.704-1.15a1.576 1.576 0 001.246-.905L50 23.183l4.093 8.873c.23.498.7.84 1.245.905l9.704 1.15-7.174 6.635z"/></g><defs><clipPath id="clip0"><path fill="#fff" d="M0 0h100v100H0z"/></clipPath></defs></svg>