<svg width="50" height="50" fill="none" xmlns="http://www.w3.org/2000/svg"><g clip-path="url(#clip0)" fill="#C00"><path d="M48.101 39.117l-9.797-9.797a3.003 3.003 0 00-4.242 0l-2.547 2.548a3.001 3.001 0 00-.76 2.953l-.96.961-.001.001c-.683.683-4.934-.365-10.073-5.504-5.138-5.138-6.187-9.389-5.505-10.073l.963-.962a2.99 2.99 0 002.953-.76l2.548-2.547a3.003 3.003 0 000-4.241l-9.797-9.798a2.98 2.98 0 00-2.121-.878 2.98 2.98 0 00-2.12.878l-2.55 2.548A3.001 3.001 0 003.334 7.4s-.815.822-.855.874C-.231 11.287-.74 16.03 1.057 21.701c1.76 5.552 5.552 11.434 10.68 16.562 5.128 5.127 11.01 8.92 16.562 10.68C30.53 49.65 32.616 50 34.511 50c3.107 0 5.697-.942 7.554-2.799l.535-.534c.267.076.547.118.833.118a2.98 2.98 0 002.12-.878l2.548-2.548a3.003 3.003 0 000-4.242zM8.761 4.02l9.798 9.797-2.546 2.55-.002-.002-.036-.036-4.862-4.862-4.899-4.899L8.762 4.02zm31.184 41.06c-2.158 2.158-5.972 2.514-10.739 1.004-5.102-1.617-10.553-5.148-15.347-9.942-4.794-4.794-8.325-10.245-9.942-15.348-1.51-4.767-1.154-8.58 1.004-10.739l.27-.27 7.603 7.603-.697.697-.001.002c-2.89 2.893.582 9.39 5.505 14.313 3.685 3.685 8.252 6.556 11.529 6.556 1.102 0 2.058-.324 2.786-1.052v-.001l.697-.697 7.603 7.603-.27.271zm3.489-1.294l-9.797-9.797 2.547-2.548 9.797 9.797s-2.546 2.549-2.547 2.548zM37.97 12.03a15.002 15.002 0 00-10.678-4.423 1.5 1.5 0 100 2.999c3.233 0 6.272 1.259 8.558 3.544a12.022 12.022 0 013.544 8.557 1.5 1.5 0 003 0c0-4.033-1.572-7.825-4.423-10.677z"/><path d="M43.35 6.651A22.56 22.56 0 0027.291 0a1.5 1.5 0 000 3 19.58 19.58 0 0113.936 5.772A19.58 19.58 0 0147 22.708a1.5 1.5 0 002.999 0 22.559 22.559 0 00-6.65-16.057zM32.592 17.408a7.345 7.345 0 00-5.299-2.195 1.5 1.5 0 100 3c1.235 0 2.304.442 3.178 1.316a4.406 4.406 0 011.316 3.178 1.5 1.5 0 003 0c0-2.03-.76-3.863-2.195-5.299z"/></g><defs><clipPath id="clip0"><path fill="#fff" d="M0 0h50v50H0z"/></clipPath></defs></svg>