<svg width="100" height="100" fill="none" xmlns="http://www.w3.org/2000/svg"><path d="M50.85 68.79c-.88 0-1.593.713-1.593 1.592v3.397a1.592 1.592 0 103.185 0v-3.397c0-.88-.713-1.592-1.593-1.592z" fill="#383838"/><path d="M99.036 45.974a3.268 3.268 0 00-2.327-.964l-4.088.001c-.052 0-.087-.058-.098-.112a33.866 33.866 0 00-7.287-15.026 34.039 34.039 0 00-13.063-9.519c-.811-3.425-2.524-6.956-5.903-9.61-3.27-2.57-6.564-3.065-6.703-3.085a1.594 1.594 0 00-1.817 1.576v8.6h-5.78c-1.427-4.901-5.956-8.493-11.312-8.493-5.468 0-10.078 3.745-11.401 8.805A33.788 33.788 0 008.765 28.965 33.789 33.789 0 000 51.699c0 18.906 9.815 34.29 12.824 38.554a4.986 4.986 0 004.071 2.104h6.778a4.995 4.995 0 004.99-4.99v-2.204c1.715.264 3.457.4 5.201.4h15.393v1.804a4.995 4.995 0 004.99 4.99h7.444a5.015 5.015 0 004.879-3.944l.817-3.814c10.466-2.548 18.88-9.89 23.022-19.418h6.3A3.294 3.294 0 00100 61.89V48.302c0-.88-.342-1.706-.964-2.328zM40.658 12.527c4.742 0 8.599 3.857 8.599 8.598 0 1.213-.26 2.407-.749 3.503h-15.7a8.61 8.61 0 01-.749-3.503c0-4.741 3.858-8.598 8.6-8.598zm56.157 49.362a.106.106 0 01-.106.107h-5.103a33.712 33.712 0 001.554-8.517 1.592 1.592 0 10-3.18-.164c-.675 13.006-9.528 24.11-21.843 27.783l2.225-10.382a1.592 1.592 0 10-3.114-.667l-3.792 17.696a1.814 1.814 0 01-1.765 1.427h-7.445c-.995 0-1.805-.81-1.805-1.805v-6.794a1.592 1.592 0 10-3.184 0v1.805H33.864c-1.747 0-3.491-.15-5.202-.442V70.382a1.592 1.592 0 00-3.185 0v16.985c0 .995-.81 1.805-1.804 1.805h-6.777a1.774 1.774 0 01-1.47-.755c-2.871-4.071-12.241-18.75-12.241-36.719a30.61 30.61 0 017.94-20.595 30.613 30.613 0 0117.755-9.68c.027 1.092.206 2.17.527 3.205h-.638a1.592 1.592 0 100 3.185h23.779a1.592 1.592 0 000-3.185h-.639c.35-1.129.533-2.31.533-3.503 0-.036-.003-.07-.003-.106h5.31v3.503a1.592 1.592 0 103.185 0V11.326c3.022 1.143 8.705 4.655 8.705 14.895a1.592 1.592 0 103.185 0c0-.675-.025-1.387-.08-2.123a30.885 30.885 0 0110.058 7.83 30.671 30.671 0 016.6 13.607c.315 1.542 1.668 2.661 3.22 2.66h4.087a.1.1 0 01.075.032.1.1 0 01.031.075v13.587z" fill="#383838"/><path d="M82.914 46.047c-.988-2.652-3.604-4.433-6.509-4.433-2.905 0-5.52 1.781-6.51 4.433a1.592 1.592 0 102.984 1.112c.527-1.412 1.944-2.36 3.526-2.36 1.582 0 2.999.948 3.525 2.36a1.593 1.593 0 102.984-1.112zM42.482 42h-6.606c-.681 0-1.234.545-1.234 1.218v9.216h-1.409c-.68 0-1.233.546-1.233 1.218 0 .673.552 1.218 1.233 1.218h1.41v2.782h-1.41c-.68 0-1.233.545-1.233 1.217 0 .673.552 1.218 1.233 1.218h1.41v2.695c0 .673.552 1.218 1.233 1.218s1.233-.545 1.233-1.218v-2.695h5.373c.681 0 1.233-.545 1.233-1.218 0-.672-.552-1.217-1.233-1.217h-5.373V54.87h5.373c3.594 0 6.518-2.887 6.518-6.435C49 44.799 46 42 42.482 42zm0 10.434h-5.373v-7.999h5.373c2.22 0 4.051 1.768 4.051 4 0 2.205-1.817 4-4.051 4z" fill="#383838"/></svg>