<svg width="50" height="50" fill="none" xmlns="http://www.w3.org/2000/svg"><g clip-path="url(#clip0)" fill="#C00"><path d="M43.918 23.422a1.336 1.336 0 00-2.666.192c.033.455.05.921.05 1.386 0 10.65-8.665 19.315-19.315 19.315-10.65 0-19.315-8.665-19.315-19.315 0-10.65 8.664-19.315 19.315-19.315 4.218 0 8.224 1.335 11.584 3.86a1.336 1.336 0 001.605-2.136 21.788 21.788 0 00-13.19-4.396C9.864 3.013 0 12.877 0 25c0 12.123 9.863 21.987 21.987 21.987 12.124 0 21.987-9.863 21.987-21.987 0-.529-.02-1.06-.056-1.578z"/><path d="M48.476 6.032a5.218 5.218 0 00-7.37 0l-19.25 19.25-6.823-6.825a5.218 5.218 0 00-7.37 0 5.218 5.218 0 000 7.37l11.75 11.753a3.443 3.443 0 002.442 1.01c.885 0 1.77-.337 2.443-1.01l24.177-24.177a5.218 5.218 0 000-7.37zm-1.89 5.481L22.41 35.691a.783.783 0 01-1.105 0L9.552 23.939a2.543 2.543 0 010-3.592 2.531 2.531 0 011.796-.743c.65 0 1.3.248 1.796.743l7.02 7.02a2.38 2.38 0 001.693.7c.64 0 1.24-.248 1.693-.7L42.995 7.921c.99-.99 2.602-.99 3.592 0 .99.99.99 2.601 0 3.591z"/></g><defs><clipPath id="clip0"><path fill="#fff" d="M0 0h50v50H0z"/></clipPath></defs></svg>